<svg xmlns="http://www.w3.org/2000/svg" viewBox="0 0 420 660"><g fill="#c3d9ed" stroke="#f4f9fd" stroke-width="2"><path d="M93.5,302.3 L72.1,349.0 L41.9,335.0 L17.1,335.9 L25.4,299.5 L17.1,263.0 L50.6,260.2 L93.5,302.3Z"/><path d="M199.8,24.8 L157.0,98.4 L197.8,89.1 L241.6,89.4 L231.2,144.8 L195.2,205.8 L236.6,210.1 L239.8,217.3 L275.4,297.5 L302.8,308.4 L327.4,385.9 L338.8,412.8 L387.3,425.7 L382.4,469.2 L362.0,489.1 L378.0,524.3 L342.0,559.9 L288.5,559.3 L220.4,578.0 L201.7,564.6 L175.3,596.5 L138.3,588.8 L110.2,614.7 L88.9,601.1 L147.6,529.7 L183.4,515.0 L183.1,515.0 L120.6,503.6 L109.3,476.6 L151.1,455.5 L129.2,418.9 L136.8,374.3 L196.2,380.5 L196.3,380.5 L202.2,341.0 L175.4,299.1 L174.8,298.2 L126.2,286.2 L116.7,267.8 L131.2,237.4 L118.1,218.7 L96.5,250.8 L94.2,185.3 L74.0,150.6 L88.5,80.3 L119.6,25.2 L151.5,30.5 L199.8,24.8Z"/></g></svg>